Coordinates
version=1
nRows=11
nColumns=63
inDegrees=yes

Units are S.I. units (second, meters, Newtons, ...)
If the header above contains a line with 'inDegrees', this indicates whether rotational values are in degrees (yes) or radians (no).

endheader
time	pelvis_tilt	pelvis_list	pelvis_rotation	pelvis_tx	pelvis_ty	pelvis_tz	hip_flexion_r	hip_adduction_r	hip_rotation_r	knee_angle_r	knee_angle_r_beta	ankle_angle_r	subtalar_angle_r	mtp_angle_r	hip_flexion_l	hip_adduction_l	hip_rotation_l	knee_angle_l	knee_angle_l_beta	ankle_angle_l	subtalar_angle_l	mtp_angle_l	L5_S1_Flex_Ext	L5_S1_Lat_Bending	L5_S1_axial_rotation	L4_L5_Flex_Ext	L4_L5_Lat_Bending	L4_L5_axial_rotation	L3_L4_Flex_Ext	L3_L4_Lat_Bending	L3_L4_axial_rotation	L2_L3_Flex_Ext	L2_L3_Lat_Bending	L2_L3_axial_rotation	L1_L2_Flex_Ext	L1_L2_Lat_Bending	L1_L2_axial_rotation	L1_T12_Flex_Ext	L1_T12_Lat_Bending	L1_T12_axial_rotation	Abs_r3	Abs_r2	Abs_r1	Abs_t1	Abs_t2	neck_flexion	neck_bending	neck_rotation	arm_flex_r	arm_add_r	arm_rot_r	elbow_flex_r	pro_sup_r	wrist_flex_r	wrist_dev_r	arm_flex_l	arm_add_l	arm_rot_l	elbow_flex_l	pro_sup_l	wrist_flex_l	wrist_dev_l
5.694915	13.309898	-12.528782	116.189167	0.222701	0.947107	0.582676	10.901050	11.488295	-2.950539	6.436764	0.112343	36.911619	-15.559977	0.000000	12.830529	-10.324314	12.119064	11.367993	0.198409	39.118947	5.936136	0.000000	-0.257473	1.006352	0.578903	-0.478152	1.338448	0.615084	-0.423002	2.446844	0.615084	-0.294265	2.446844	0.506540	-0.239089	2.052153	0.470358	-0.147120	1.558839	0.434177	-1.839101	11.384055	3.219683	0.000000	0.000000	14.174095	-4.543283	-8.539930	31.567142	-17.871595	40.075976	48.604375	89.233380	0.866608	14.025158	31.444972	-5.091354	145.907553	-1.820129	-3.573794	-19.741969	-17.365618
5.711864	12.809165	-12.349037	116.279225	0.223065	0.947327	0.579290	10.149549	11.206998	-2.943574	6.116587	0.106755	36.735822	-15.639919	0.000000	12.210074	-10.041337	12.105211	10.987563	0.191769	39.158125	6.335331	0.000000	-0.258329	0.932808	-0.064282	-0.479743	1.240634	-0.068300	-0.424409	2.268028	-0.068300	-0.295244	2.268028	-0.056247	-0.239884	1.902181	-0.052229	-0.147609	1.444919	-0.048212	-1.845218	10.552107	-0.357518	0.000000	0.000000	14.936737	-3.856584	-6.911741	32.619059	-16.669462	45.082660	45.432165	89.062501	1.504110	14.570475	27.202155	-8.161933	141.031363	-1.618219	-3.171909	-13.428833	-17.108691
5.728814	12.225207	-12.148088	116.014303	0.223906	0.947552	0.576145	9.378448	10.919281	-2.551205	5.897483	0.102930	36.609366	-15.663596	0.000000	11.456622	-9.761245	11.587811	10.645208	0.185794	39.143306	6.757299	0.000000	-0.261776	0.849903	-0.557796	-0.486144	1.130372	-0.592658	-0.430072	2.066455	-0.592658	-0.299184	2.066455	-0.488072	-0.243085	1.733123	-0.453209	-0.149579	1.316500	-0.418347	-1.869840	9.614278	-3.102295	0.000000	0.000000	15.410442	-2.919125	-5.900458	33.282836	-15.886945	48.942304	43.878539	88.998030	1.941113	15.008123	22.862075	-10.610635	134.058102	-0.776020	-1.376242	-7.977106	-17.062719
5.745763	11.547177	-11.902159	115.517422	0.225076	0.947826	0.573342	8.574028	10.587252	-1.876934	5.767964	0.100670	36.524602	-15.684850	0.000000	10.606966	-9.447495	10.692318	10.378948	0.181147	39.085595	7.199365	0.000000	-0.275103	0.761012	-0.935586	-0.510894	1.012146	-0.994060	-0.451967	1.850325	-0.994060	-0.314415	1.850325	-0.818637	-0.255461	1.551856	-0.760163	-0.157194	1.178808	-0.701689	-1.965035	8.608721	-5.203446	0.000000	0.000000	15.573798	-1.851632	-5.384864	33.766094	-15.504933	51.731365	43.887205	89.050148	2.174957	15.318487	18.512255	-12.542320	125.442956	0.619894	1.529504	-3.583556	-17.314213
5.762712	10.774417	-11.641857	114.776693	0.226503	0.948136	0.570801	7.751798	10.200491	-0.974092	5.735970	0.100112	36.474094	-15.675682	0.000000	9.668025	-9.084538	9.460288	10.165789	0.177426	38.986427	7.592346	0.000000	-0.297201	0.664012	-1.201872	-0.551932	0.883136	-1.276989	-0.488272	1.614479	-1.276989	-0.339671	1.614479	-1.051638	-0.275981	1.354054	-0.976521	-0.169821	1.028555	-0.901404	-2.122878	7.511438	-6.684451	0.000000	0.000000	15.451570	-0.671337	-5.265321	34.054756	-15.443607	53.380408	45.371245	89.487766	2.198285	15.346000	14.136454	-13.974911	115.226351	2.508069	5.697333	-0.398592	-17.795227
5.779661	9.946236	-11.383696	113.852857	0.228042	0.948429	0.568452	6.931361	9.767174	0.095596	5.778334	0.100851	36.433905	-15.673727	0.000000	8.691827	-8.680632	7.954648	10.012533	0.174752	38.862589	7.947220	0.000000	-0.322739	0.563526	-1.378625	-0.599359	0.749490	-1.464789	-0.530228	1.370157	-1.464789	-0.368858	1.370157	-1.206297	-0.299696	1.149142	-1.120133	-0.184413	0.872902	-1.033968	-2.305293	6.374719	-7.667497	0.000000	0.000000	15.072961	0.505096	-5.385405	34.276457	-15.676345	54.050239	48.172576	90.530893	1.928705	15.197801	9.827263	-15.082216	104.155578	4.793728	10.339868	1.351277	-18.519456
5.796610	9.089812	-11.160811	112.745384	0.229656	0.948651	0.566240	6.157148	9.290733	1.309628	5.892645	0.102846	36.400098	-15.689223	0.000000	7.727420	-8.235769	6.224279	9.917625	0.173095	38.721321	8.229581	0.000000	-0.347734	0.460805	-1.481149	-0.645776	0.612870	-1.573721	-0.571291	1.120401	-1.573721	-0.397425	1.120401	-1.296005	-0.322905	0.939673	-1.203434	-0.198695	0.713787	-1.110862	-2.483826	5.212716	-8.237707	0.000000	0.000000	14.545713	1.601143	-5.631271	34.632413	-16.139825	53.937986	52.086198	92.050547	1.418358	15.270921	5.645639	-15.961197	92.673829	7.388451	15.232612	1.397169	-19.173890
5.813559	8.245052	-10.961753	111.525495	0.231229	0.948827	0.564194	5.433949	8.790644	2.565889	6.052085	0.105629	36.377880	-15.692101	0.000000	6.800600	-7.762181	4.433554	9.873158	0.172319	38.569911	8.382599	0.000000	-0.371533	0.361952	-1.521258	-0.689974	0.481396	-1.616336	-0.610392	0.880050	-1.616336	-0.424625	0.880050	-1.331101	-0.345006	0.738093	-1.236022	-0.212294	0.560664	-1.140943	-2.653825	4.094474	-8.460779	0.000000	0.000000	13.975958	2.570856	-5.939797	35.272888	-16.821077	53.216768	56.892497	93.295936	0.630706	15.737176	1.676151	-16.636476	80.979748	10.204273	20.180554	0.283267	-19.708572
5.830508	7.436669	-10.761865	110.281685	0.232655	0.949054	0.562360	4.746389	8.282041	3.781134	6.211293	0.108408	36.358960	-15.689226	0.000000	5.926816	-7.275972	2.671465	9.868070	0.172230	38.435320	8.505681	0.000000	-0.393589	0.272946	-1.493147	-0.730934	0.363019	-1.586469	-0.646627	0.663642	-1.586469	-0.449833	0.663642	-1.306504	-0.365487	0.556592	-1.213182	-0.224897	0.422794	-1.119860	-2.811366	3.087625	-8.304437	0.000000	0.000000	13.419303	3.341536	-6.385139	36.170980	-17.722987	51.855765	62.443025	93.488374	-0.426351	16.674118	-1.897453	-17.134526	69.185973	13.136607	25.215432	-0.393555	-20.324988
5.847458	6.702029	-10.585021	109.081136	0.233868	0.949318	0.560725	4.124041	7.787811	4.890931	6.340166	0.110657	36.355057	-15.667274	0.000000	5.155222	-6.799143	1.031564	9.891588	0.172641	38.354297	8.650288	0.000000	-0.412218	0.196792	-1.420244	-0.765529	0.261734	-1.509009	-0.677232	0.478481	-1.509009	-0.471123	0.478481	-1.242713	-0.382785	0.401299	-1.153948	-0.235541	0.304831	-1.065183	-2.944429	2.226155	-7.898969	0.000000	0.000000	12.989297	3.896315	-6.872345	37.390633	-18.717315	50.068476	68.494095	91.799578	-1.618223	17.927355	-5.002679	-17.547686	58.053813	16.063749	30.493571	-1.109518	-20.525194
5.864407	6.043592	-10.450317	107.911566	0.234940	0.949639	0.559253	3.582404	7.309046	5.903495	6.417025	0.111998	36.358110	-15.622260	0.000000	4.500336	-6.329492	-0.472220	9.914406	0.173039	38.333568	8.832610	0.000000	-0.426410	0.131642	-1.310648	-0.791887	0.175083	-1.392564	-0.700550	0.320073	-1.392564	-0.487344	0.320073	-1.146817	-0.395965	0.268444	-1.064902	-0.243651	0.203913	-0.982986	-3.045806	1.489156	-7.289433	0.000000	0.000000	12.766035	4.337785	-7.367241	38.911284	-19.654431	48.006713	74.933658	88.557093	-3.116003	19.331201	-7.676453	-17.896208	47.893115	18.912697	35.787703	-2.102405	-20.220108
